HIERARCHY
ROOT Bone
{
	OFFSET	-0.0	0.0	-0.0
	CHANNELS 6 Xposition Zposition Yposition Xrotation Yrotation Zrotation
	JOINT Bone.001
	{
		OFFSET	0.0	1.0	0.0
		CHANNELS 3 Xrotation Yrotation Zrotation

	}

	JOINT Bone.002
	{
		OFFSET	8.99718877179e-09	-0.999999880791	1.66262495327e-07
		CHANNELS 3 Xrotation Yrotation Zrotation

		JOINT Bone.003
		{
			OFFSET	-1.87586545053e-06	2.77826833725	1.36664561978e-06
			CHANNELS 3 Xrotation Yrotation Zrotation

			JOINT Bone.004
			{
				OFFSET	-2.03547551791e-06	2.50911474228	-3.88982971344e-06
				CHANNELS 3 Xrotation Yrotation Zrotation

				JOINT Bone.005
				{
					OFFSET	-1.17858894555e-06	5.22695875168	3.34133414981e-06
					CHANNELS 3 Xrotation Yrotation Zrotation

				}

			}

		}

	}

	JOINT Bone.007
	{
		OFFSET	-1.30249071121	1.31904840469	-0.687532007694
		CHANNELS 3 Xrotation Yrotation Zrotation

	}

}
MOTION
Frames:	1
Frame Time: 0.033333
0.0 0.0 0.0 -90.0 -0.0 -0.0 -90.0 89.9999847412 0.0 -105.907112122 -127.613426208 -18.4143257141 -142.87991333 -26.9619560242 55.8380241394 33.4134559631 -17.4964160919 -145.705596924 -99.5933609009 19.4316101074 17.4894504547 -120.89466095 36.6176872253 -79.7323150635 
